<svg id="Layer_1" data-name="Layer 1" xmlns="http://www.w3.org/2000/svg" viewBox="0 0 411.36 378"><title>Layercake</title><polygon points="206.24 62.07 5.07 62.07 5.07 332.17 206.21 332.17 206.24 332.17 347.75 373 347.75 102.41 206.24 62.07" style="fill:#00ffce"/><polygon points="205.28 242.79 205.19 242.79 5 242.79 5 332.37 205.16 332.37 346.22 373 346.06 283.17 205.28 242.79" style="fill:#ffd000"/><polygon points="205.34 153.46 205.25 153.45 5.06 153.45 5.06 243.04 205.22 243.04 346.16 283.17 346.06 193.59 205.34 153.46" style="fill:#23a8fc;stroke:ivory;stroke-miterlimit:10;stroke-width:10px"/><polygon points="5 63.62 5 153.2 205.16 153.2 346.1 193.34 346.22 103.76 205.28 63.63 205.19 63.62 5 63.62" style="fill:#ff2e00;stroke:ivory;stroke-miterlimit:10;stroke-width:10px"/><path d="M483.58,256.82s14.91-58.62,200.74-58.62c200.61,0,200.61,58.62,200.61,58.62V527.33c0,16.54-47.5,38.87-60.14,38.87V297l-141-40.14Z" transform="translate(-478.58 -193.2)" style="fill:ivory"/><path d="M824.79,571.2h-5V300.74L683.07,261.82H478.7V252c.65-2.55,18.06-58.75,205.62-58.75,84.1,0,144,10.09,178.06,30,26.78,15.66,27.55,31.84,27.55,33.63V527.33C889.93,548.36,838.18,571.2,824.79,571.2ZM491.92,251.82H684.47l.67.19,144.65,41.18V560.37c6.68-1.73,17.28-6,27.34-11.75,16.83-9.57,22.8-17.45,22.8-21.29V256.91c-.11-1.39-6.27-53.71-195.61-53.71-52.4,0-124,5-167.67,28.7C502.78,239.44,495.57,246.83,491.92,251.82Z" transform="translate(-478.58 -193.2)"/><polygon points="0.07 337.16 0.07 62.07 10.07 62.07 10.07 327.17 205.87 327.37 206.55 327.57 347.6 368.2 344.87 377.66 341.22 378 204.46 337.37 0.07 337.16"/></svg>