<svg id="Layer_1" data-name="Layer 1" xmlns="http://www.w3.org/2000/svg" viewBox="0 0 421.29 423.24"><title>Layercake</title><path d="M828.41,264.3c37.22-9.26,60.23-22.06,60.23-36.2,0-28.28-92.07-51.2-205.64-51.2s-205.64,22.92-205.64,51.2H683Z" transform="translate(-472.36 -171.9)" style="fill:ivory"/><path d="M828.41,269.45l-146-36.35h-210v-5c0-36.51,108.53-56.2,210.64-56.2s210.64,19.69,210.64,56.2c0,20.76-34.81,33.78-64,41ZM483.81,223.1h199.8l144.8,36c26.93-6.84,55.23-18.48,55.23-31,0-12.76-29.15-24.56-56.44-31.35-38.45-9.58-89.67-14.85-144.2-14.85s-105.75,5.27-144.2,14.85C515.12,202.64,490,212.31,483.81,223.1Z" transform="translate(-472.36 -171.9)"/><polygon points="210.64 56.2 5 56.2 5 165.13 210.64 165.13 356.06 201.34 356.06 92.4 210.64 56.2" style="fill:#ff2e00"/><path d="M833.41,379.63l-151-37.6h-210V223.1H683.61l149.8,37.29Zm-351-47.6H683.61l139.8,34.81V268.21l-141-35.11h-200Z" transform="translate(-472.36 -171.9)" style="fill:ivory"/><polygon points="210.64 165.13 5 165.13 5 274.07 210.64 274.07 356.06 310.27 356.06 201.34 210.64 165.13" style="fill:#0106cc"/><path d="M833.41,488.57,682.39,451h-210V332H683.61l149.8,37.3ZM482.36,441H683.61l.6.15,139.2,34.66V377.14L682.39,342h-200Z" transform="translate(-472.36 -171.9)" style="fill:ivory"/><polygon points="210.64 274.07 5 274.07 5 383 210.64 383 356.06 419.2 356.06 310.27 210.64 274.07" style="fill:#ffce00"/><path d="M833.41,595l-151-35.08h-210V441H683.61l.6.15,149.2,37.15Zm-351-45.08H683.61l.6.15,139.2,34.65V486.08L682.39,451h-200Z" transform="translate(-472.36 -171.9)" style="fill:ivory"/><polygon points="215.64 161.22 211.26 160.13 205.64 160.1 205.64 56.2 215.64 56.2 215.64 161.22" style="fill:#f22c00"/><path d="M833.41,595l-10,0-141-35.11h-210V228.1l.69-5H683.61l149.8,37.29Zm-351-45.08H683.61l.6.15,139.2,34.65V268.21l-141-35.11h-200Z" transform="translate(-472.36 -171.9)"/><path d="M828.41,264.3V591.1c37.22-9.26,60.23-22.06,60.23-36.2V228.1C888.64,242.24,865.63,255,828.41,264.3Z" transform="translate(-472.36 -171.9)" style="fill:ivory"/><path d="M823.41,595V260.39l3.79-.94c27.29-6.79,56.44-18.6,56.44-31.35h10V554.9c0,19.86-31.89,32.65-60.23,40.08C832.14,595.32,823.41,595,823.41,595Zm10-326.83V584.62c25.32-7,50.23-17.93,50.23-29.72V246.26C872,256.18,851.94,263.32,833.41,268.18Z" transform="translate(-472.36 -171.9)"/><polygon points="215.64 270.16 211.26 269.07 205.64 269.07 205.64 170.13 210.03 170.13 215.64 171.53 215.64 270.16" style="fill:#0003bf"/><polygon points="215.64 379.09 211.26 378 205.64 378 205.64 279.07 210.03 279.07 215.64 280.46 215.64 379.09" style="fill:#f2c100"/></svg>